<?xml version="1.0" encoding="UTF-8" standalone="no"?> <svg id="Layer_1" data-name="Layer 1" xmlns="http://www.w3.org/2000/svg" viewBox="0 0 96 96"><title>vitamin-nutrient-nutrition-calorie-benefit-food</title><path d="M92.11859,72.71444a2.34945,2.34945,0,0,0,.21161-.50043,2.5,2.5,0,0,0-4.792-1.42706,2.42782,2.42782,0,0,0,.05,1.5487C85.397,72.96651,83.78455,73.68624,81,74.55776l1.46454,3.31592c2.7348-.8446,4.0965-1.49292,6.18426-2.092a2.4955,2.4955,0,1,0,3.46979-3.06726Z" style="fill:#f2d89d"/><path d="M82.07709,33.4203c.02783.51892.074,1.04773.13281,1.57971h9.48193c.07605-.53973.14228-1.0708.1908-1.57971.74408-7.80249-2.1897-17.24866-4.84369-17.418C84.37677,15.83247,81.62433,24.97322,82.07709,33.4203Z" style="fill:#77cdf2"/><path d="M82.17786,29H92c-.3905-6.55359-2.73907-12.85962-4.90314-12.99768C84.89819,15.86207,82.64313,22.07447,82.17786,29Z" style="fill:#248fbd"/><polygon points="15.111 11.781 14.141 10.033 9.752 12.468 9.787 8.016 7.787 8 7.752 12.475 3.834 10.375 2.889 12.139 7.734 14.735 7.704 18.562 9.704 18.577 9.734 14.764 15.111 11.781" style="fill:#3ac21b"/><path d="M25.85749,74.34888c3.89148.9353,6.03485,5.60321,4.78729,10.42614s-5.41339,10.51307-9.30493,9.57776A5.91475,5.91475,0,0,1,19,93.18457V76.81677A7.15177,7.15177,0,0,1,25.85749,74.34888Z" style="fill:#f2d89d"/><path d="M8.14254,71.89426A7.15165,7.15165,0,0,1,15,74.36222L15,74.36216V90.73a5.91413,5.91413,0,0,1-2.33979,1.16822c-3.89154.9353-8.05749-4.75488-9.305-9.57776S4.25113,72.82956,8.14254,71.89426Z" style="fill:#f2d89d"/><path d="M19,80V90a5,5,0,0,0,0-10Z" style="fill:#f23c42"/><path d="M10,83a5,5,0,0,0,5,5V78A5,5,0,0,0,10,83Z" style="fill:#f23c42"/><path d="M49.3965,68.90367c-8.88059,3.71316-13.778,13.985-11.25248,20.26735,2.55125,6.34635,10.81929,5.76018,19.8471,2.131.119-.04785.23214-.09917.35022-.14762Z" style="fill:#f2b11b"/><path d="M81.011,80.76508l.00286-.00959-4.3424-7.877a17.83526,17.83526,0,0,0-7.8371-4.79633c-.07666-.02282-.16577-.03894-.24243-.06176L61.74774,91.00293C70.92719,93.674,79.028,93.41528,80.95453,86.946A12.05269,12.05269,0,0,0,81.011,80.76508Z" style="fill:#f2b11b"/><path d="M90.00749,84c2.20914.00284,3.996,2.84076,3.9925,5.38976S92.20271,94.00284,89.99358,94,85.99646,91.92847,86,89.37947,87.79836,83.99716,90.00749,84Z" style="fill:#f2d89d"/><path d="M82.2099,39a25.24819,25.24819,0,0,0,2.65979,9.228L81,55l6-2,6,2-3.9245-6.86792A29.45589,29.45589,0,0,0,91.69183,39Z" style="fill:#77cdf2"/><path d="M59.09747,3.97124a6.32668,6.32668,0,0,0-9.18,0l-.92.96-.92-.96a6.32668,6.32668,0,0,0-9.18,0,6.94423,6.94423,0,0,0,0,9.54l10.1,10.49,10.1-10.49A6.94423,6.94423,0,0,0,59.09747,3.97124Z" style="fill:#f23c42"/><polygon points="60.997 16.001 57.997 16.001 57.997 13.001 53.997 13.001 53.997 16.001 50.997 16.001 50.997 20.001 53.997 19.876 53.997 23.001 57.997 23.001 57.997 19.876 60.997 19.876 60.997 16.001" style="fill:#77cdf2"/><path d="M14.74541,22.61953a4.6555,4.6555,0,0,0-4.33818-4.93472l-3.03578-.20616a5.09372,5.09372,0,0,0-5.339,5.62518l1.763,12.59086Z" style="fill:#fa7921"/><path d="M4.93589,40.56289l2.80263,20.016,7.96094-31.96853a5.03724,5.03724,0,0,0,.18643-1.12267Z" style="fill:#fa7921"/><path d="M42.4834,86.24316l-1.97266-.332a19.042,19.042,0,0,1,2.48731-6.543,21.86308,21.86308,0,0,1,2.55664-3.4375l1.48047,1.34571a19.81575,19.81575,0,0,0-2.32227,3.12207A16.995,16.995,0,0,0,42.4834,86.24316Z" style="fill:#d99f18"/><rect x="4.08581" y="19.60167" width="1.99928" height="6.09646" transform="translate(-17.72754 26.94496) rotate(-88.00799)" style="fill:#cf641b"/><polygon points="12.67 40.77 10.01 41.01 10.18 43 12.16 42.82 12.67 40.77" style="fill:#cf641b"/><rect x="6.08821" y="46.87886" width="2.82845" height="2.0001" transform="translate(-4.22497 0.8561) rotate(-5.09818)" style="fill:#cf641b"/><path d="M40.88965,10.55371A3.27848,3.27848,0,0,1,44.166,5.50684l-.332,1.97265a1.29857,1.29857,0,0,0-1.11816.35645,1.28176,1.28176,0,0,0-.16211,1.61035Z" style="fill:#d9191f"/><path d="M59.01465,75.501l-.00781-2a3.00961,3.00961,0,0,0,1.498-.40528l1.00391,1.73047A5.02507,5.02507,0,0,1,59.01465,75.501Zm-2.499-.66211a5.0494,5.0494,0,0,1-1.833-1.81543l1.72461-1.01367a3.02863,3.02863,0,0,0,1.10449,1.09472ZM63.333,72.99609l-1.73242-.998A3.00207,3.00207,0,0,0,62,70.5l2-.04688V70.5A5.0024,5.0024,0,0,1,63.333,72.99609ZM54,70.52344V70.5a4.995,4.995,0,0,1,.6543-2.47266l1.73632.99219A2.98423,2.98423,0,0,0,56,70.5Zm7.583-1.55078a3.03575,3.03575,0,0,0-1.10938-1.08692l.98438-1.74023a5.02222,5.02222,0,0,1,1.84375,1.80566Zm-4.10254-1.05957-1.01563-1.72266A4.99762,4.99762,0,0,1,58.95508,65.5l.01953,2A2.99723,2.99723,0,0,0,57.48047,67.91309Z" style="fill:#45cf25"/><path d="M21.01465,70.001l-.00781-2a3.00961,3.00961,0,0,0,1.498-.40528l1.00391,1.73047A5.02507,5.02507,0,0,1,21.01465,70.001Zm-2.499-.66211a5.0494,5.0494,0,0,1-1.833-1.81543l1.72461-1.01367a3.02863,3.02863,0,0,0,1.10449,1.09472ZM25.333,67.49609l-1.73242-.998A3.00207,3.00207,0,0,0,24,65l2-.04688V65A5.0024,5.0024,0,0,1,25.333,67.49609ZM16,65.02344V65a4.995,4.995,0,0,1,.6543-2.47266l1.73632.99219A2.98423,2.98423,0,0,0,18,65Zm7.583-1.55078a3.03575,3.03575,0,0,0-1.10938-1.08692l.98438-1.74023a5.02222,5.02222,0,0,1,1.84375,1.80566Zm-4.10254-1.05957-1.01563-1.72266A4.99762,4.99762,0,0,1,20.95508,60l.01953,2A2.99723,2.99723,0,0,0,19.48047,62.41309Z" style="fill:#45cf25"/><path d="M24.01465,28.001l-.00781-2a3.00961,3.00961,0,0,0,1.498-.40528l1.00391,1.73047A5.02507,5.02507,0,0,1,24.01465,28.001Zm-2.499-.66211a5.0494,5.0494,0,0,1-1.833-1.81543l1.72461-1.01367a3.02863,3.02863,0,0,0,1.10449,1.09472ZM28.333,25.49609l-1.73242-.998A3.00207,3.00207,0,0,0,27,23l2-.04688V23A5.0024,5.0024,0,0,1,28.333,25.49609ZM19,23.02344V23a4.995,4.995,0,0,1,.6543-2.47266l1.73632.99219A2.98423,2.98423,0,0,0,21,23Zm7.583-1.55078a3.03575,3.03575,0,0,0-1.10938-1.08692l.98438-1.74023a5.02222,5.02222,0,0,1,1.84375,1.80566Zm-4.10254-1.05957-1.01563-1.72266A4.99762,4.99762,0,0,1,23.95508,18l.01953,2A2.99723,2.99723,0,0,0,22.48047,20.41309Z" style="fill:#45cf25"/><path d="M74.01465,41.001l-.00781-2a3.00961,3.00961,0,0,0,1.498-.40528l1.00391,1.73047A5.02507,5.02507,0,0,1,74.01465,41.001Zm-2.499-.66211a5.0494,5.0494,0,0,1-1.833-1.81543l1.72461-1.01367a3.02863,3.02863,0,0,0,1.10449,1.09472ZM78.333,38.49609l-1.73242-.998A3.00207,3.00207,0,0,0,77,36l2-.04688V36A5.0024,5.0024,0,0,1,78.333,38.49609ZM69,36.02344V36a4.995,4.995,0,0,1,.6543-2.47266l1.73632.99219A2.98423,2.98423,0,0,0,71,36Zm7.583-1.55078a3.03575,3.03575,0,0,0-1.10938-1.08692l.98438-1.74023a5.02222,5.02222,0,0,1,1.84375,1.80566Zm-4.10254-1.05957-1.01563-1.72266A4.99762,4.99762,0,0,1,73.95508,31l.01953,2A2.99723,2.99723,0,0,0,72.48047,33.41309Z" style="fill:#45cf25"/><path d="M43.7998,33.40039l-3-4a1.03525,1.03525,0,0,0-1.5996,0l-3,4,1.5996,1.19922L39,32.99988V62H30v2H40a.99943.99943,0,0,0,1-1V32.99988l1.2002,1.59973Z" style="fill:#606060"/><path d="M60.7998,33.40039l-3-4a1.03525,1.03525,0,0,0-1.5996,0l-3,4,1.5996,1.19922L56,32.99988V62h2V32.99988l1.2002,1.59973Z" style="fill:#606060"/><path d="M74,10H67.99988l1.59973-1.2002L68.40039,7.2002l-4,3a.999.999,0,0,0,0,1.5996l4,3,1.19922-1.5996L67.99988,12H73V29h2V11A.99943.99943,0,0,0,74,10Z" style="fill:#606060"/><path d="M33.59961,6.2002l-4-3L28.40039,4.7998,30.00012,6H24a.99943.99943,0,0,0-1,1v9h2V8h5.00012L28.40039,9.2002l1.19922,1.5996,4-3a.999.999,0,0,0,0-1.5996Z" style="fill:#606060"/><rect x="85" y="22" width="2" height="2" style="fill:#606060"/><path d="M82.77884,75.45505c1.0262,2.56366-1.56421,6.01182-4.64061,7.24325s-6.40221.15145-7.4284-2.41222.63582-5.6402,3.71222-6.87163S81.75265,72.89138,82.77884,75.45505Z" style="fill:#d99f18"/></svg>