<?xml version="1.0" encoding="UTF-8" standalone="no"?> <svg id="Layer_1" data-name="Layer 1" xmlns="http://www.w3.org/2000/svg" viewBox="0 0 64 64"><rect x="31.25" y="31" width="1.5" height="4" style="fill:#b1bdcc"/><rect x="21" y="38" width="22" height="8" rx="2" style="fill:#91adcc"/><rect x="21" y="46" width="22" height="8" rx="2" style="fill:#7f98b3"/><rect x="21" y="54" width="22" height="8" rx="2" style="fill:#6d8299"/><rect x="24" y="41.00007" width="2" height="2" style="fill:#e6e6e6"/><rect x="31" y="41.50007" width="9" height="1.5" style="fill:#e6e6e6"/><rect x="24" y="49.00007" width="2" height="2" style="fill:#e6e6e6"/><rect x="31" y="49.50007" width="9" height="1.5" style="fill:#e6e6e6"/><rect x="24" y="57.00007" width="2" height="2" style="fill:#e6e6e6"/><rect x="31" y="57.50007" width="9" height="1.5" style="fill:#e6e6e6"/><rect x="31.25" y="1" width="1.5" height="3" style="fill:#ffe38f"/><rect x="42" y="13.25" width="3" height="1.5" style="fill:#ffe38f"/><rect x="19" y="13.25" width="3" height="1.5" style="fill:#ffe38f"/><rect x="23.11824" y="4.36832" width="1.49984" height="2.99968" transform="translate(2.8414 18.59609) rotate(-45)" style="fill:#ffe38f"/><rect x="38.632" y="5.11824" width="2.99968" height="1.49984" transform="translate(7.60492 30.09624) rotate(-45)" style="fill:#ffe38f"/><path d="M40,14a8.00089,8.00089,0,1,0-12.79306,6.39667A1.97771,1.97771,0,0,1,28,21.98121L28,23h8l0-1.01719a1.9749,1.9749,0,0,1,.78882-1.583A7.976,7.976,0,0,0,40,14Z" style="fill:#f2d888"/><path d="M28,23v2a3,3,0,0,0,3,3h2a3,3,0,0,0,3-3V23Z" style="fill:#64768c"/><path d="M32.71052,23H31.28947v-3.3721l-2.96932-2.18659A2.01051,2.01051,0,0,1,27.5,15.83064v-.81759A2.03407,2.03407,0,0,1,29.55016,13a2.05592,2.05592,0,0,1,1.44973.58957l.5551.54506a.63869.63869,0,0,0,.89,0l.5551-.54506A2.05592,2.05592,0,0,1,34.44983,13,2.03406,2.03406,0,0,1,36.5,15.01305v.81759a2.00964,2.00964,0,0,1-.82062,1.61064l-1.35814,1.00064-.853-1.11646,1.3586-1.00064a.61519.61519,0,0,0,.25211-.49418v-.81759a.62415.62415,0,0,0-.62911-.61773.63989.63989,0,0,0-.445.18077l-.55509.54506a2.07951,2.07951,0,0,1-2.89947,0l-.5551-.54506a.63987.63987,0,0,0-.445-.18077.62415.62415,0,0,0-.62911.61773v.81759a.616.616,0,0,0,.25164.49418l3.2538,2.396a.69472.69472,0,0,1,.284.55823Z" style="fill:#7f98b3"/><rect x="27.99999" y="22.99997" width="8" height="2" style="fill:#6d8199"/><rect x="6.59863" y="49.25" width="11.40137" height="1.5" style="fill:#b1bdcc"/><path d="M15,45.75H9.59863a.74833.74833,0,0,1-.624-.334L7.19727,42.75H4.59863v-1.5h3a.74834.74834,0,0,1,.624.334L10,44.25h5Z" style="fill:#b1bdcc"/><path d="M7.59863,58.75h-3v-1.5H7.19727l1.77734-2.666a.74833.74833,0,0,1,.624-.334H15v1.5H10L8.22266,58.416A.74834.74834,0,0,1,7.59863,58.75Z" style="fill:#b1bdcc"/><rect x="46" y="49.25" width="11.40137" height="1.5" style="fill:#b1bdcc"/><path d="M59.40137,58.75h-3a.74834.74834,0,0,1-.624-.334L54,55.75H49v-1.5h5.40137a.74833.74833,0,0,1,.624.334l1.77734,2.666h2.59864Z" style="fill:#b1bdcc"/><path d="M54.40137,45.75H49v-1.5h5l1.77734-2.666a.74834.74834,0,0,1,.624-.334h3v1.5H56.80273l-1.77734,2.666A.74833.74833,0,0,1,54.40137,45.75Z" style="fill:#b1bdcc"/><rect x="16" y="44.25" width="2" height="1.5" style="fill:#b1bdcc"/><rect x="16" y="54.25" width="2" height="1.5" style="fill:#b1bdcc"/><rect x="46" y="54.25" width="2" height="1.5" style="fill:#b1bdcc"/><rect x="46" y="44.25" width="2" height="1.5" style="fill:#b1bdcc"/><circle cx="60.5" cy="58" r="2.5" style="fill:#7f98b3"/><circle cx="58.40137" cy="50" r="2.5" style="fill:#7f98b3"/><circle cx="60.5" cy="42" r="2.5" style="fill:#7f98b3"/><circle cx="3.5" cy="42" r="2.5" style="fill:#7f98b3"/><circle cx="5.59863" cy="50" r="2.5" style="fill:#7f98b3"/><circle cx="3.5" cy="58" r="2.5" style="fill:#7f98b3"/></svg>